<!--?xml version="1.0" standalone="no"?-->

<svg version="1.0" xmlns="http://www.w3.org/2000/svg" width="300.000000pt" height="174.000000pt" viewBox="0 0 300.000000 174.000000" preserveAspectRatio="xMidYMid meet">
<g transform="translate(0.000000,174.000000) scale(0.100000,-0.100000)" fill="#030303" stroke="none">
<path d="M1795 1526 c-16 -7 -167 -146 -335 -309 l-305 -296 -577 -1 -578 0 0
-325 0 -325 979 0 978 0 33 22 c61 41 64 108 8 160 l-30 28 36 0 c110 0 165
117 86 183 l-29 25 46 5 c56 6 95 33 109 77 14 42 7 75 -22 103 -13 12 -24 25
-24 29 0 4 150 9 334 10 l334 3 26 24 c34 32 42 80 22 120 -33 62 -22 61 -602
61 l-528 0 112 113 112 114 0 55 c0 64 -23 102 -76 124 -41 17 -70 17 -109 0z" id="node1" class="node"></path>
</g>
<g transform="translate(0.000000,174.000000) scale(0.100000,-0.100000)" fill="#A2A2A2" stroke="none">

</g>
</svg>